# xmcd
#
# Track frame offsets: 
#        150
#        15902
#        30877
#        48922
#        80132
#        94402
#        110240
#        124807
#        140210
#        156655
#        174892
#        195525
#        213350
#        230615
#        253450
#        272570
#
# Disc length: 3929 seconds
#
# Revision: 1
# Processed by: cddbd v1.5.2PL0 Copyright (c) Steve Scherf et al.
# Submitted via: ExactAudioCopy v0.99pb4
#
DISCID=e60f5710
DTITLE=Foreigner - The Very Best Of Foreigner
DYEAR=1992
DGENRE=Rock
TTITLE0=Feels LikeTthe First Time
TTITLE1=Cold As Ice 
TTITLE2=Starrider 
TTITLE3=Hot Blooded 
TTITLE4=Blue Morning, Blue Day 
TTITLE5=Double Vision 
TTITLE6=Dirthy White Boy 
TTITLE7=Women 
TTITLE8=Head Games
TTITLE9=Juke Box Hero
TTITLE10=Waiting For A Girl Like You 
TTITLE11=Urgent 
TTITLE12=That Was Yesterday 
TTITLE13=I Want To Know What Love Is 
TTITLE14=Say You Will 
TTITLE15=I Don't Want To Live Without You 
EXTD=
EXTT0=
EXTT1=
EXTT2=
EXTT3=
EXTT4=
EXTT5=
EXTT6=
EXTT7=
EXTT8=
EXTT9=
EXTT10=
EXTT11=
EXTT12=
EXTT13=
EXTT14=
EXTT15=
PLAYORDER=
